<?xml version="1.0" encoding="utf-8"?>
<!-- Generator: Adobe Illustrator 24.0.1, SVG Export Plug-In . SVG Version: 6.00 Build 0)  -->
<svg version="1.1" id="Layer_1" xmlns="http://www.w3.org/2000/svg" xmlns:xlink="http://www.w3.org/1999/xlink" x="0px" y="0px"
	 viewBox="0 0 500 500" style="enable-background:new 0 0 500 500;" xml:space="preserve">
<style type="text/css">
	.st0{clip-path:url(#SVGID_2_);}
	.st1{fill:#B4B4B4;}
	.st2{opacity:0.5;}
	.st3{fill-rule:evenodd;clip-rule:evenodd;fill:#482413;}
	.st4{opacity:0.1;}
	.st5{stroke:#FFFFFF;stroke-width:1.8164;stroke-miterlimit:10;}
	.st6{fill:none;stroke:#000000;stroke-miterlimit:10;}
	.st7{fill:#FFFFFF;stroke:#000000;stroke-width:1.8164;stroke-miterlimit:10;}
	.st8{fill:#FFFFFF;}
	.st9{fill-rule:evenodd;clip-rule:evenodd;fill:#8C8C8C;}
	.st10{fill:#8C8C8C;}
	.st11{fill:#020203;}
	.st12{fill:#E72B6E;}
	.st13{fill:#E73356;}
	.st14{fill:#B3B3B3;}
	.st15{fill:none;stroke:#818181;stroke-width:1.9147;stroke-miterlimit:10;}
	.st16{fill:none;stroke:#231F20;stroke-miterlimit:10;}
	.st17{fill:#F49814;}
	.st18{fill:#FFFAEE;}
	.st19{fill:none;}
	.st20{clip-path:url(#SVGID_4_);}
	.st21{opacity:0.5;clip-path:url(#SVGID_6_);}
	.st22{clip-path:url(#SVGID_6_);}
	.st23{opacity:0.95;fill:#FFFFFF;stroke:#000000;stroke-width:1.571;stroke-miterlimit:10;}
	.st24{opacity:0.95;fill:#FFFFFF;stroke:#000000;stroke-width:1.5721;stroke-miterlimit:10;}
	.st25{clip-path:url(#SVGID_8_);}
	.st26{fill:#DFDFDF;}
	.st27{clip-path:url(#SVGID_10_);}
	.st28{clip-path:url(#SVGID_12_);}
	.st29{fill:#55B153;}
	.st30{opacity:0.2;clip-path:url(#SVGID_12_);}
	.st31{clip-path:url(#SVGID_14_);}
	.st32{opacity:0.2;clip-path:url(#SVGID_14_);}
	.st33{clip-path:url(#SVGID_16_);}
	.st34{fill:#F3F3F3;}
	.st35{fill:#F2F2F2;}
	.st36{fill:#EFEFEF;}
	.st37{fill:#F0F0F0;}
	.st38{fill:#E7E7E7;}
	.st39{fill:#F1F1F1;}
	.st40{fill:#7E7E7E;}
	.st41{stroke:#FFFFFF;stroke-width:0.3925;stroke-miterlimit:10;}
	.st42{stroke:#FFFFFF;stroke-width:0.5662;stroke-miterlimit:10;}
	.st43{fill:none;stroke:#000000;stroke-width:5;stroke-linecap:round;stroke-linejoin:round;stroke-miterlimit:10;}
</style>
<g>
	<path class="st8" d="M307.7,59c29,0.3,57.2,4.6,84.5,14.5c22.9,8.4,43.8,20.2,61.5,37.3c22.3,21.5,36,47.5,40.2,78.3
		c3.5,25.4-0.4,49.9-9.3,73.7c-10.8,28.8-27.6,53.7-48.6,75.9c-27.9,29.6-60.8,52.3-97.6,69.6c-28.3,13.3-57.9,22.8-88.7,28.3
		c-26.6,4.7-53.4,6.3-80.3,3.9c-26.6-2.3-52.4-8.2-76.8-19.3c-24.1-10.9-45.1-26-61.3-47.2c-20.3-26.6-29.1-56.7-27-90
		c1.7-27.2,10.6-52.3,24.1-75.8c16.5-28.8,38.4-52.9,64.1-73.6c41.1-33,87.7-54.8,138.9-67C256.5,61.7,281.9,58.7,307.7,59z
		 M196.3,436.7c4.5-0.2,13.1-0.4,21.7-1.1c22.3-1.7,44.2-5.8,65.6-12c46.9-13.6,89.5-35.5,126.8-67.3c21.8-18.6,40.6-39.9,55.1-64.7
		c13.5-23,22.4-47.6,24.4-74.4c1.5-19.8-1.2-39-8.6-57.5c-10.7-26.8-29-47.3-52.9-62.9c-24-15.8-50.7-24.7-78.8-29.5
		c-26.4-4.4-52.9-4.6-79.4-1.6c-30.2,3.4-59.4,11-87.6,22.2c-39.1,15.6-74.4,37.1-105,66.2c-23.7,22.5-43.1,48.1-55.8,78.4
		c-11.1,26.5-15.9,54-11,82.7c3.8,22.3,13,42.2,27.5,59.6c16.5,19.9,37.4,33.9,61.1,43.9C129,431.3,160.1,436.3,196.3,436.7z"/>
	<path class="st8" d="M166,150.7c-1.9,0.2-1.7,1.4-1.8,2.6c-0.1,17.8-0.2,35.7-0.1,53.5c0,11.2-0.7,22.2-4.7,32.8
		c-1.8,4.6-3.9,9.1-7.3,12.8c-0.9,1-2.1,1.7-3.1,2.6c-0.2-0.2-0.4-0.4-0.6-0.5c0.2-0.4,0.2-1,0.5-1.3c5.9-4.8,8.3-11.6,9.6-18.6
		c1.3-7.1,2.3-14.4,2.4-21.6c0.4-19.1,0.3-38.3,0.3-57.4c0-0.5-0.1-1.1-0.1-2c-6.9,4.2-15,6-20.6,12c-3.9,4.1-4.7,9.3-4.8,14.7
		c-0.1,4.2,0.7,8.2,2.8,11.9c1.6,2.9,3.9,5.1,7.1,6.3c3,1.1,3,1.1,2.5,4.6c-1.2-0.1-2.6,0.1-3.8-0.3c-6.5-1.9-11.9-5.4-14.4-12
		c-3.7-10-3.9-20.1-0.5-30.2c0.4-1.2,1.5-2.5,2.7-3.1c9.9-5.4,20-10.5,29.8-16.1c5.9-3.4,11.5-7.5,17.2-11.3
		c2.8,1.7,3.1,2.6,1.4,5.4c-1.7,2.9-1.7,6.1-1.7,9.2c0,13.1,0.1,26.2,0.3,39.3c0.2,14.4,0.3,28.8-1,43.2c-0.3,3.1-0.4,6.2,1.8,8.8
		c2.2,2.6,5.7,3.1,7.8,1.2c0.9-0.8,1.3-1.5,0.3-2.7c-2.4-2.7-3.2-6-3.5-9.5c-0.9-9,1.9-17,7-24.4c3.9-5.7,7.7-11.4,11.4-17.1
		c0.6-0.9,0.9-2.2,0.9-3.3c0.1-2.7-0.9-4-2.7-4.5c-1.9-0.5-4.6,0.5-5.5,2.4c-0.6,1.4-0.8,3.1-0.9,4.7c-0.1,0.9,0.3,1.8,0.5,2.7
		c-0.2,0.1-0.4,0.2-0.6,0.3c-0.6-0.9-1.4-1.7-1.7-2.6c-1.7-4.8,1-10.1,5.9-11.9c4.8-1.8,9.7-0.3,12.4,4c0.8,1.2,1.3,2.8,1.3,4.2
		c0.2,10.8,0.3,21.7,0.4,32.5c0,1.5,0,3,0,4.5c0.1,2.6,2.1,3.8,4.5,2.6c1-0.5,1.9-1.3,3.4-2.3c-0.3,1.2-0.3,2-0.7,2.6
		c-1.3,1.9-2.6,3.7-4.1,5.4c-1.8,2.1-4.3,2.8-6.9,2.1c-1.7-0.5-2.4,0.2-3.3,1.5c-1.1,1.7-2.3,3.4-3.7,4.9c-3.6,4-6.1,4.8-11.5,3.8
		c-1.1,3-3.2,5.3-6.4,6.5c-0.9,0.3-1.8,0.7-2.8,0.7c-5.4,0.2-9.7,2.7-13.3,6.5c-2.2,2.3-4.3,4.7-6.5,6.9
		c-7.6,7.6-17.2,10.1-27.6,10.1c-0.6,0-1.2-0.7-1.8-1.1c0.5-0.3,1-1,1.4-0.9c9.5,0.6,15.7-5.1,21-11.7c6.9-8.6,9.9-19,10.6-29.8
		c0.7-10.8,0.5-21.7,0.6-32.5c0.1-13,0-25.9,0-38.9C166,152,166,151.4,166,150.7z M203.6,192.2c-0.2,0-0.4-0.1-0.6-0.1
		c-2.3,5.1-4.9,10.1-6.9,15.2c-2.3,6-2.9,12.3-1.3,18.6c0.7,2.9,3.3,4.6,6,4c2.4-0.6,4-2.3,5.1-4.4c0.2-0.3-0.2-0.9-0.4-1.4
		c-0.6-1.6-1.8-3.2-1.8-4.8c-0.2-7.3-0.2-14.5-0.2-21.8C203.6,195.7,203.6,194,203.6,192.2z"/>
	<path class="st8" d="M102.3,258c0.2,2,0.5,4,0.6,6c0.2,6.8,0.4,13.6,0.5,20.4c0.1,2.6,0.7,3,2.9,1.7c3.5-2.2,6.9-4.4,10.3-6.8
		c0.5-0.3,0.8-1.3,0.7-2c-0.3-8.4-0.6-16.7-0.9-25.1c-0.1-2.1-1.2-3.3-3.3-3.4c-0.5,0-1.1,0-1.6-0.2c-0.5-0.2-0.9-0.5-1.3-0.8
		c0.4-0.4,0.6-1.1,1.1-1.3c7.5-3.5,13.3-8.7,17.4-15.9c0.1-0.1,0.2-0.1,0.7-0.3c0.1,1.3,0.4,2.4,0.4,3.6c0.3,10.4,0.5,20.8,0.8,31.3
		c0.1,3.4,0.5,6.8,2.3,9.9c0.6,1.1,0.4,2-0.6,2.6c-1.1,0.8-1.3,1.5-0.3,2.7c12.6,15,16.5,32.6,15.6,51.7
		c-0.6,11.6-3.3,22.6-9.4,32.7c-5.2,8.7-12.4,15.1-22,18.6c-1.2,0.4-2.4,0.7-3.6,0.8c-0.6,0-1.6-0.6-1.6-1.1
		c-0.1-0.8,0.3-2.1,0.8-2.3c8-2.9,12.2-9.2,15-16.7c3.7-10,4.2-20.5,4.1-31c-0.2-14.5-3.1-28.4-8.7-41.8c-2.4-5.7-2.2-4.8-6.8-2.4
		c-3,1.6-5.7,3.8-8.4,5.9c-2.2,1.8-3.3,4.2-3.3,7.2c-0.7,28.2-1.3,56.4-0.3,84.6c0.1,3.3,0.5,6.6,0.8,9.8c0.1,1.6,0.8,2.4,2.6,2.3
		c1-0.1,2.2,0.3,3.1,0.8c0.6,0.3,1.2,1.2,1.1,1.8c-0.1,0.5-1,1.4-1.5,1.4c-2.6-0.1-5.3,0.1-7.6-0.7c-6.9-2.5-9.9-8.1-10.1-15
		c-0.3-10.5-0.2-21-0.3-31.5c-0.2-22.7-0.4-45.4-0.7-68.1c0-4.1-1-5.1-5-6.4c-0.6-0.2-1.2-0.8-1.7-1.2c0.4-0.5,0.7-1,1.1-1.3
		c6.7-4.8,11.6-11.2,15.5-18.4c0.3-0.6,0.7-1.3,1-1.9C101.8,257.9,102,258,102.3,258z M127.5,288.3c12.3,25.4,11.6,50.8,2.3,76.5
		C142.1,343.8,142.5,306.9,127.5,288.3z"/>
	<path class="st8" d="M297.4,222.8c0.7,2.2,1.2,4,0.1,5.8c-1.8,3-2.4,6.2-2.4,9.6c0,4,0,8-0.1,11.9c-0.1,3.5-1.7,6.5-4.1,8.9
		c-1,1-2.7,1.5-4.1,1.8c-0.7,0.1-1.8-0.7-2.2-1.4c-0.3-0.5,0.3-1.5,0.6-2.3c0.1-0.2,0.3-0.3,0.4-0.4c7.2-5.6,5.9-15.6,1.1-21.6
		c-4.6-5.7-10.4-8.1-17.7-6.5c-10,2.1-14.8,15-8.7,23.2c4,5.3,9.4,8.8,15,12.1c8.8,5.2,17.7,10.3,26.5,15.3c1.8,1,2.2,2,1.3,3.9
		c-0.4,0.9-0.2,2.3,0.1,3.3c1.8,4.5,3.3,9,3.3,13.9c-0.2,14.1-7,24.6-19.4,30.6c-13.6,6.6-27.2,5.5-39.4-4.1
		c-10.9-8.6-13.6-25.6-6.3-36.4c3.6-5.3,8.6-7.1,14.8-6.6c1.3,0.1,2.1,0.8,2,2.1c0,1.3-0.1,2.6-0.3,3.9c-0.1,0.5-0.6,1.2-1,1.3
		c-3.1,0.7-4.7,3.1-5.9,5.6c-5.7,13-1.1,28.4,16.5,31.9c8.7,1.7,17-2.3,21.5-9.7c4.8-8,4.7-16-0.6-23.8
		c-5.2-7.5-12.5-12.7-20.1-17.3c-6.2-3.8-12.7-7.2-19-10.8c-1.3-0.7-2.6-1.6-3.7-2.5c-1.6-1.3-1.6-2.4,0.1-3.4c1.6-1,1.6-2,1.3-3.6
		c-1.5-8-0.8-15.7,3.6-22.8c6.1-9.7,17.1-13.4,29.3-10.3c3.4,0.9,7,1.3,10.5,1.8c2.2,0.4,4-0.3,5.5-2.1
		C296.1,223.7,296.7,223.4,297.4,222.8z M252,250.7c-0.3,0.1-0.6,0.3-0.9,0.4c0.8,2.2,1.4,4.5,2.3,6.5c1.9,4.1,5.7,6.4,9.4,8.7
		c7.4,4.5,14.9,8.7,22.2,13.3c5.4,3.4,10.1,7.6,12.2,13.9c0.1,0.2,0.3,0.3,0.4,0.4c0.2-0.1,0.4-0.2,0.6-0.3c-0.8-2-1.2-4.3-2.5-5.9
		c-2.5-3-5.2-6.1-8.4-8.3c-6.5-4.4-13.3-8.4-20.2-12.3C260.4,263.2,254.1,258.9,252,250.7z"/>
	<path class="st8" d="M183.7,256.8c7.9-3.3,10.7-10.6,13.9-17.6c0.2,0.1,0.5,0.1,0.7,0.2c0.1,0.8,0.2,1.6,0.2,2.4
		c0,20.2,0.1,40.3,0.1,60.5c0,6.2,0,12.5,0.2,18.7c0.1,1.9,0.6,3.9,1.3,5.7c0.8,2,2.6,2.7,4.8,2.4c1.8-0.3,3.9-2.3,4.1-4.1
		c0-0.4-0.4-1.1-0.8-1.4c-2.5-1.7-3.6-3.9-3.6-6.9c0-14.2,0-28.4,0-42.6c0-0.8,0.1-1.7,0.2-2.7c3.7,3.6,7.2,7.1,10.3,10.1
		c-0.5,1.5-1.2,2.7-1.2,3.9c0,9.3,0,18.5,0.1,27.8c0,1.3-0.3,3.1,1.3,3.3c1.2,0.1,2.7-0.6,3.7-1.4c2.9-2.4,4.2-5.5,4.1-9.5
		c-0.3-12.8-0.1-25.7-0.1-38.5c0-1.3,0.1-2.6,0.7-4c0.4,0.5,0.9,1.1,1.3,1.6c1.3,2,2.3,4.1,3.8,5.9c2,2.4,4.3,4.5,6.5,6.8
		c0.4,0.4,0.6,0.8,0.9,1.2c-0.4,0.2-0.8,0.7-1.3,0.7c-2,0.1-2,1.5-2,3c0,9.3,0,18.5,0,27.8c0,13.3,0,26.6-0.2,39.9
		c-0.1,7.1-0.9,14.2-3.6,21c-4.8,12.2-19.2,18-30.8,12.6c-4.3-2-7.4-5.2-9.5-9.3c-3.6-7-4.3-14.3-1.9-21.7
		c2.8-8.9,10.6-14.3,20.5-14.1c2,0,4.1,0.4,6.1,0.7c0.8,0.1,1.5,0.7,2.3,1c-0.1,0.2-0.1,0.4-0.2,0.6c-1,0-2-0.1-2.9-0.2
		c-9.4-1-17.5,3.1-21.4,10.7c-4.3,8.5-3.2,19.6,2.8,26.3c7.2,8,18.4,7.3,24.4-1.6c2.9-4.4,4.1-9.2,4.1-14.4
		c0.2-14.3,0.4-28.5,0.5-42.8c0-0.5-0.1-1-0.1-1.9c-4.1,2.9-6.2,8.4-11.8,7.8c-1.1,1.9-1.9,3.9-3.1,5.4c-4.7,5.8-12.6,5.3-16.7-1
		c-2.5-3.7-3.5-7.9-3.5-12.3c0-16.3-0.1-32.7-0.1-49c0-2.1-0.1-4.1-0.1-6.2c0-2-0.5-3.5-2.8-3.8c-0.3,0-0.6-0.3-0.9-0.5
		C184,257.2,183.8,257,183.7,256.8z"/>
	<path class="st8" d="M242.1,136.1c6.3-3.6,9.2-9.6,12.3-15.5c0.2,0.1,0.5,0.1,0.7,0.2c0,14.7,0,29.5,0,44.2c0.2,0,0.5,0.1,0.7,0.1
		c0.3-0.6,0.6-1.2,0.9-1.9c1.6-3.4,4-6.1,7.5-7.5c4.9-1.9,9.5,0.1,10.9,5.2c1.4,5,0.3,9.7-3.2,13.6c-1,1.1-2.4,1.7-3.8,2.6
		c0,0-0.1,0.2,0,0.4c2.3,4.7,4.7,9.4,6.9,14.2c2.1,4.7,4.6,9,9.5,11.2c4.2,1.9,8.6,3,13.1,0.7c0.4-0.2,1.1,0,1.6,0
		c-0.3,0.5-0.4,1.3-0.8,1.6c-4.1,2.5-8.5,2.3-12.9,1.6c-8.3-1.4-14.4-5.9-18.3-13.3c-2-3.8-4-7.7-6-11.5c-1.4-2.6-3-5.1-5.7-7.3
		c-0.6,3.6-0.2,6.6,1.4,9.4c0.3,0.6,0.7,1.2,1,1.8c0.2,0.5,0,1,0.1,1.5c-0.5-0.1-1-0.1-1.5-0.2c-0.3-0.1-0.5-0.2-1-0.5
		c-0.1,0.9-0.3,1.6-0.3,2.2c0,4.3,0.1,8.6,0.2,13c0.1,3.2,0.4,3.4,3.6,3.6c0.3,0,0.5,0.1,0.9,0.4c-4.7,3.3-9.8,5.7-14.9,8.1
		c0.5-4,0.9-7.7,1.4-11.5c-0.2,0-0.4-0.1-0.6-0.1c-1,2.7-1.8,5.5-2.9,8.2c-1.5,3.8-3.7,7.1-7.9,8.5c-4.8,1.6-10-0.1-13.1-4.4
		c-2.7-3.7-4.1-7.9-4.6-12.4c-0.9-6.9-0.7-13.8,1.1-20.6c1.1-4.1,3-7.7,5.5-11c3.1-4.1,6.7-5.2,11.6-3.5c1.7,0.6,2.9,0.1,3.2-1.4
		c0.5-1.9,0.5-3.9,0.7-5.8c0.1-0.7,0.2-1.3,0.3-2c0.3,0,0.6,0,1,0c0.4,1.5,1,2.9,1.1,4.4c0.1,8.9,0.1,17.7,0.1,26.6
		c0,0.5-0.6,1.1-1,1.6c-0.4-0.6-1-1.1-1-1.7c-0.2-3.5-0.2-7-0.4-10.5c-0.1-1.3-0.4-2.7-0.9-4c-1.1-3.1-3.8-4-6.1-1.7
		c-1.9,1.9-3.9,4.3-4.6,6.9c-2.5,9-3.1,18.1,0.1,27.1c0.7,2.1,2.1,4.1,3.5,5.7c2.4,2.6,5.9,2.4,8.3-0.3c0.6-0.7,1.2-1.5,1.6-2.4
		c2.7-6,5-12,4.9-18.8c-0.3-16.3-0.2-32.5-0.2-48.8C245.9,137.9,245.9,137.9,242.1,136.1z M259.9,174.2c4,0.1,5.8-1.5,6.1-5.5
		c0.1-1.2,0.1-2.3-0.1-3.5c-0.4-2.8-3.1-3.8-4.9-1.8c-1.7,1.8-3,4.1-4,6.3C255.3,173.6,255.8,174.1,259.9,174.2z"/>
	<path class="st8" d="M302.3,206.4c1.6-2,3.2-3.4,4-5.1c1.2-2.6,3.2-3.6,5.7-4.5c19.7-7.1,39.6-14,60-18.8c16.8-4,33.8-6.9,51.1-6
		c11.6,0.6,22.6,3.5,32.3,10.3c13.6,9.4,19,22.6,17.6,38.8c-0.6,7.1-2.3,13.9-6,20.1c-5.2,8.5-12.6,12.8-22.6,13
		c-16.2,0.2-30.3-10.7-33.2-26.4c-1.7-8.9-0.6-17.5,4.8-25.2c3.9-5.5,9.4-7.4,15.9-6.4c4.5,0.7,7.1,3.6,7.8,8.1
		c0.7,4.7-0.1,9-3.2,12.8c-1.9,2.3-4,4.4-6,6.5c-2.5,2.7-4.8,5.6-5.4,9.5c-0.8,5,0.8,7.6,5.6,9c0.4,0.1,0.9,0.2,1.2,0.4
		c0.4,0.4,0.8,0.9,1.1,1.4c-0.5,0.4-0.9,0.8-1.4,1.1c-0.4,0.2-0.9,0-1.4,0c-0.5,0-0.9,0-1.4,0c-0.1,0.2-0.3,0.4-0.4,0.6
		c1,0.9,2,2.1,3.1,2.7c4.4,2.5,9.2,3.2,14.1,2.5c10.2-1.3,17.2-7,20.5-16.4c5.4-15.4,3.7-30.1-6.9-42.9c-6.3-7.6-15-11.4-24.5-13.3
		c-11.8-2.4-23.6-1.6-35.4-0.3c-20.6,2.3-40.1,9-59.5,15.6c-11.7,4-23.4,8.2-35.1,12.3C304.2,206,303.5,206.1,302.3,206.4z
		 M421.8,227.7c2.8-3.2,5.2-6.3,7.9-9.2c2.4-2.5,3.2-5.4,2.8-8.6c-0.2-2-0.9-3.8-3-4.5c-1.9-0.6-4,0.2-5.2,2.3
		C420.5,214,420.3,220.7,421.8,227.7z"/>
	<path class="st8" d="M397.7,221.9c5.8,7.2,11.3,14.2,17.1,21.2c3.6,4.4,7.8,8.3,12.9,11c12.6,6.7,24.7,5.8,36.3-2.5
		c0.9-0.6,2-1.1,2.9-1.7c0.2,0.3,0.4,0.5,0.6,0.8c-0.8,1-1.5,2.2-2.4,3.1c-6.9,6.2-15.1,9.3-24.3,9.6c-12.5,0.4-22.8-4.2-31.6-12.9
		c-5.5-5.4-9.8-11.6-14-18c-2.3-3.6-4.7-7.1-7-10.6c-0.4-0.5-0.6-1.1-1.2-2.1c1.6,0,2.9,0.1,4.1,0c3.8-0.4,6.7-3.8,6.7-7.6
		c0-2.9-1.6-4.2-4.4-3.6c-3.1,0.7-5.5,2.6-6.8,5.5c-2.2,4.9-2.2,9.8-0.1,14.7c0.3,0.7,0.7,1.5,0.9,2.3c0.1,0.2,0,0.4-0.1,1
		c-1-0.6-1.8-1.1-2.4-1.5c0,4.3-0.1,8.7,0.1,13c0,0.8,1.3,1.6,2.1,2.2c0.5,0.4,1.2,0.4,1.8,0.5c0,0.2,0,0.5,0.1,0.7
		c-5.7,1.8-11.3,3.7-17.4,5.6c0.2-0.8,0.3-1.1,0.5-1.3c2.7-2.5,3.3-5.7,3.3-9.2c0-18,0.1-36,0.1-53.9c0-1.6,0-3.2,0.4-5
		c1.3,6.9,6,10.7,12.3,14c-4.5,1-3.7,3.9-3.7,6.5c0,2.2,0,4.5,0,6.7c0.2,0,0.5,0.1,0.7,0.1c0.7-1.1,1.4-2.2,2.1-3.2
		c2.7-3.7,5.9-6.7,10.6-7.5c5.6-1,10.1,2.8,10.1,8.5c0.1,6.5-2.3,10.1-8.2,12.6C399.2,221.2,398.3,221.6,397.7,221.9z"/>
	<path class="st8" d="M328,264.4c-4.9,1.2-10.3-3.3-10.4-8.7c-0.2-6.5,0-13-0.1-19.5c0-1.4,0-2.9-0.2-4.3c-0.1-0.6-0.6-1.4-1.1-1.5
		c-0.5-0.1-1.4,0.4-1.7,0.9c-0.9,1.7-1.8,3.4-2.3,5.2c-0.7,3.1-0.9,6.2,0.4,9.3c0.2,0.4-0.1,1-0.2,1.5c-0.5-0.1-0.9-0.1-1.3-0.2
		c0,5.6,0,11.4,0,17.1c0,1.4,1,2,2.3,2c0.8,0,1.7,0,2.5,0c0.1,0.2,0.1,0.4,0.2,0.6c-0.5,0.4-1,1-1.7,1.3c-4.5,2.3-9,4.4-13.4,6.7
		c-1.5,0.8-2.6,0.7-3.4-1c4.3-2.9,4.5-7.6,4.7-12c0.3-7-0.1-14-0.2-21c0-1.4-0.7-1.8-2-1.8c-0.5,0-1.1,0-2,0.1
		c0.3-0.8,0.4-1.4,0.8-1.7c4.4-4.4,8.2-9.2,10.7-15c0.1-0.3,0.2-0.5,0.4-0.7c0.2,0.1,0.4,0.2,0.5,0.2c0,3.5,0,7,0,10.5
		c0.1,0,0.3,0.1,0.4,0.1c0.7-1.5,1.3-3,2.2-4.4c1.1-1.8,2.4-3.5,3.8-5.1c1.7-1.8,3.8-2.9,6.3-2.1c2.5,0.7,2.3,3.1,2.8,5.6
		c0.6-0.9,0.9-1.5,1.2-2.1c1.3-1.9,2.4-4,3.9-5.7c1.4-1.7,3.5-2.2,5.6-1.3c2,0.8,2.4,2.5,2.4,4.4c-0.1,5-0.3,10-0.3,15
		c0,5.7,0.2,11.5,0.6,17.2c0.2,2.6,0.9,5.2,4.2,5.9c0.3,0.1,0.7,0.6,0.6,0.8c-0.1,0.3-0.5,0.6-0.9,0.7c-4.3,1.6-10.3-1-11.7-5.5
		c-0.9-2.8-1.2-5.9-1.3-8.9c-0.2-4.9,0.1-9.9,0.1-14.8c0-1-0.7-2.1-1.1-3.1c-1.1,1.1-2.3,2.2-3.3,3.3c-0.2,0.2,0,0.7,0,1
		c0,6.9,0,13.9,0.1,20.8C326.3,257.6,325.7,261.1,328,264.4z"/>
	<path class="st8" d="M149.4,317c0.4-8.9,0.7-16.8,4.6-23.8c1.8-3.2,4.1-6.2,6.7-8.7c4.7-4.6,10.7-4.3,15.4,0.4
		c4.3,4.3,6.3,9.7,7.4,15.5c2,11.4,1.8,22.7-2.7,33.5c-1.3,3.1-3.2,6.1-5.5,8.6c-5.3,5.8-12.1,5.6-17.7,0.1
		c-4.2-4.3-6.2-9.6-7.1-15.4C149.9,323.5,149.7,319.7,149.4,317z M161.4,322.4c0.2,0,0.4,0,0.6,0.1c0.4-1.1,0.6-2.2,1.1-3.2
		c3.3-6.1,6.6-12.1,10-18.1c0.2-0.4,0.9-0.6,1.3-0.6c0.3,0,0.6,0.7,0.7,1.1c0.1,0.6,0,1.3-0.2,1.8c-1.3,3.4-2.7,6.9-4.1,10.3
		c-1.1,2.4-2.5,4.7-3.4,7.3c-1.4,4.2-2.1,8.5-0.4,12.9c0.8,1.9,2.1,3.3,4.3,3.3c2.2,0,3.9-1.1,4.6-3.2c0.6-2,0.8-4.1,1.1-6.2
		c0.1-0.9-0.3-1.9-0.2-2.9c0-0.6,0.5-1.2,0.7-1.7c0.5,0.5,1.1,0.9,1.3,1.5c0.3,0.7,0.4,1.5,0.6,2.3c0.2,0,0.4,0,0.6,0.1
		c0.3-0.9,0.8-1.8,0.8-2.7c0.3-5.7,0.8-11.3,0.7-17c-0.1-4.8-1.2-9.5-3.4-13.9c-1.2-2.4-2.7-4.5-5.7-4.8c-3.1-0.2-4.6,2-6,4.3
		C160.9,302,160.4,312.1,161.4,322.4z"/>
	<path class="st8" d="M342,183.1c0.4-0.8,0.6-1.3,0.9-1.5c2.4-1.7,2.9-4.2,2.9-6.9c0-8.5,0-17-0.1-25.5c0-3.1-0.2-3.1-3.3-3.1
		c-0.3,0-0.5-0.1-1.1-0.3c0.4-0.7,0.7-1.4,1.1-1.9c4.5-4.6,8.6-9.5,11.1-15.4c0.2-0.4,0.6-0.8,1.3-1.1c0,3.9,0,7.7,0,12.1
		c1.4-2.7,2.4-5,3.8-7c1.3-1.9,2.9-3.6,4.7-5.1c1.7-1.4,3.8-2,6-0.9c2.1,1,2.1,3.1,2.1,5c0.1,9.8,0.1,19.6,0.2,29.4
		c0,1.6,0.1,3.3,0.3,4.9c0.4,3.5,1.6,4.3,4.9,3.1c0.3-0.1,0.7-0.4,1-0.3c0.8,0.1,1.6,0.4,2.4,0.6c-0.4,0.6-0.8,1.6-1.3,1.8
		c-2.5,0.9-5,2-7.6,2.3c-4.2,0.5-7.9-2.6-8.7-7c-0.4-1.9-0.5-4-0.5-5.9c0-6.9,0.1-13.7,0-20.6c0-1.1-0.9-2.2-1.3-3.3
		c-1,0.8-2.3,1.4-2.8,2.4c-2,4-2.6,8.4-1.5,12.8c0.3,1.1,1.2,2.1,1.7,3.2c0.3,0.6,0.5,1.2,0.8,1.8c-0.3,0.3-0.7,0.6-1,0.8
		c-0.7-1.2-1.5-2.4-2.2-3.6c-0.2,0.1-0.3,0.2-0.5,0.3c0,0.5-0.1,1-0.1,1.5c0,5.1,0,10.3,0.2,15.4c0.1,4,0.4,4.1,4.2,4.3
		c0.4,0,0.8,0.2,1.6,0.3c-0.7,0.7-1,1.3-1.6,1.5c-5.3,2-10.7,3.9-16,5.8C343.1,183.2,342.7,183.1,342,183.1z"/>
	<path class="st8" d="M341.4,160.6c-0.1,7-0.9,13-3.7,18.6c-1,1.9-2.2,3.8-3.7,5.4c-5.1,5.3-12.7,4.8-17.2-1
		c-2.9-3.7-4.3-8.1-4.9-12.7c-1.3-9-0.4-17.6,3.9-25.7c1.7-3.2,4.1-5.8,7.6-7.1c4.7-1.8,9.2-0.6,12.3,3.3c3.1,3.9,4.4,8.6,5.1,13.5
		C341.3,157,341.3,159.2,341.4,160.6z M321.1,169c0.7-1.5,1.3-3,2.2-4.4c2.4-3.7,4.9-7.4,7.4-11.1c0.2-0.3,0.7-0.6,0.9-0.5
		c0.3,0.1,0.7,0.6,0.7,0.8c-0.2,1.3-0.2,2.6-0.7,3.7c-1.3,2.6-2.8,5-4.2,7.5c-2,3.5-3,7.2-2.4,11.2c0.4,2.6,2,4.2,4.2,4.3
		c2.5,0.1,4.4-1.2,4.8-4.1c0.3-2-0.1-4.1,0-6.1c0-0.6,0.4-1.1,0.6-1.7c0.4,0.5,1,0.8,1.3,1.4c0.4,0.8,0.5,1.8,0.7,2.6
		c0.2,0,0.4,0,0.5,0c0.3-0.9,0.8-1.7,0.9-2.6c0.2-4.8,0.5-9.6,0.4-14.4c-0.1-3.8-1.3-7.4-3.7-10.5c-2.5-3.3-6.1-3.4-8.6-0.1
		C320.6,152.4,319.9,160.6,321.1,169z"/>
	<path class="st8" d="M372.3,231.4c-0.2,6.2-1,12.2-4.1,17.7c-2.3,4.1-5.4,7.2-10.4,7.7c-4.6,0.4-8.1-1.4-10.8-5.1
		c-3-4.2-4.2-9-4.6-14.1c-0.6-8,0.4-15.8,5-22.6c1.3-1.9,3.1-3.6,5-4.8c5.7-3.4,11.9-1.8,15.5,3.9
		C371.4,219.4,372.1,225.4,372.3,231.4z M367.4,242.3c0.2,0,0.4,0,0.6,0.1c0.3-0.9,0.8-1.7,0.8-2.6c0.2-4.4,0.6-8.8,0.4-13.1
		c-0.2-3.7-1.3-7.3-3.7-10.3c-2.3-2.9-5.8-3.3-8.2-0.6c-5.9,6.7-6.6,14.7-5.8,22.9c2-3,4-5.9,6.1-8.8c1.1-1.5,2.1-3,3.2-4.5
		c0.5-0.7,1.2-1.3,1.8-1.9c0.2,1,0.5,2,0.5,3c0,0.6-0.4,1.3-0.8,1.9c-1.3,2.2-2.7,4.5-4,6.7c-2,3.2-3,6.6-2.5,10.4
		c0.4,2.6,2,4.2,4.2,4.4c2.5,0.2,4.4-1.2,4.9-3.9c0.3-1.8,0-3.7,0-5.5c0-0.7,0.3-1.3,0.4-2c0.5,0.5,1.2,1,1.5,1.6
		C367.1,240.6,367.2,241.5,367.4,242.3z"/>
	<path class="st8" d="M203.5,251.9c-0.1-2.6,0-5.2-0.3-7.7c-0.3-2.9,0.7-4.4,3.5-5.7c20.3-9.4,40.6-18.6,61.6-26.4
		c4.2-1.6,8.4-2.4,12.9-1.5c2.2,0.5,4.6,0.3,7,0.7c-29.8,10-56.9,25.3-83.9,41.1C204,252.1,203.8,252,203.5,251.9z"/>
	<path class="st8" d="M305.8,163.5c-0.5-0.4-1.3-0.7-1.5-1.3c-1.1-2.2-2.3-4.5-3.2-6.8c-0.6-1.6-0.8-3.4-3-3.7
		c-2.4-0.3-4.7,0.7-5.8,2.7c-1.3,2.4-0.8,5.3,1.5,7.5c2.1,2,4.5,3.6,6.7,5.5c2.2,1.9,4.5,3.6,6.5,5.7c9.6,10.1,5.4,24.3-8.2,27.5
		c-12.5,3-23.4-7-21-19.3c0.4-2.2,1.6-4.2,2.7-6.2c0.4-0.7,1.2-1.5,2-1.7c1.1-0.2,2.3,0,3.4,0.1c-0.2,1.4,0.1,3.2-0.7,4.1
		c-1.3,1.5-3.3,2.5-3.6,4.8c-0.4,3.2-0.2,6.3,1.2,9.2c2.4,5,7.7,7.8,13.1,7c3.9-0.6,6.2-2.9,6.7-6.9c0.1-0.7,0.2-1.4,0.5-2.7
		c2,2.2,1.1,4.1,0.5,6c3.6-2,3.9-9.7,0.7-12.8c-2.9-2.8-6-5.4-9.1-8.1c-2.5-2.2-5.1-4.4-7.8-6.4c-4.2-3.2-4.3-7.5-3.2-11.9
		c1.1-4.5,4.4-7,8.9-7.8c1.6-0.3,3.3-0.1,4.9-0.1c2.8,0.1,4.1-1.1,4.1-3.8c0-1.2-0.7-2.4-1-3.7c-0.1-0.5-0.1-1.1-0.2-1.6
		c0.6,0.2,1.5,0.2,1.6,0.5c0.8,1.9,1.9,3.8,2,5.8c0.3,3.5-0.2,7,0,10.5c0.1,2,0.8,4,1.2,6c0.1,0.5,0.2,1,0.3,1.5
		C306.1,163.3,305.9,163.4,305.8,163.5z"/>
	<path class="st8" d="M411.4,133.7c-1-0.7-1.8-1-2.1-1.6c-1.1-2.1-2.4-4.2-3.1-6.4c-1.1-3.6-2.3-4.6-5.4-3.9
		c-2.9,0.7-4.8,3.6-3.8,6.4c0.6,1.8,1.9,3.5,3.3,4.8c3.2,2.8,6.7,5.2,9.9,8c3.2,2.6,5.6,5.9,6.5,10c1.6,7.5-1.4,13.8-8.4,17.1
		c-4.1,2-8.5,2.7-13,1.7c-12.6-2.6-15.6-17-10.2-24.5c0.8-1.1,2.1-2,3.3-2.6c0.7-0.3,1.7,0.2,2.7,0.6c-5.7,2-5.1,6.8-5.2,11
		c0,6.5,3.9,11.7,10,13.2c1.9,0.5,4,0.4,5.9,0.1c3.4-0.6,5.3-2.9,5.8-6.3c0.1-0.6,0-1.3,0.2-1.8c0.2-0.4,0.6-0.8,0.9-1.2
		c0.3,0.4,0.8,0.9,0.8,1.3c-0.1,1.5-0.3,3-0.5,4.4c3.2-1.7,3.7-9,0.2-12.4c-1.4-1.4-2.8-2.6-4.3-3.8c-4-3.3-8.1-6.6-12.1-9.9
		c-3.8-3.1-5.1-7.8-3.4-12.5c1.5-4.3,5.5-7.1,10.2-7.3c1.2,0,2.3,0,3.5,0.1c2.7,0.2,4.1-1,4-3.6c0-1.3-0.7-2.6-1.1-3.9
		c-0.1-0.5-0.1-1-0.1-1.5c0.5,0.1,1.3,0.1,1.4,0.4c0.8,1.5,1.8,3.1,2.2,4.7c0.4,1.6,0.2,3.3,0,4.9c-0.4,4.4-0.2,8.8,1.4,13
		C411.2,132.4,411.2,132.7,411.4,133.7z"/>
	<path class="st8" d="M83.5,383.9c-10.8-2.2-19.6-7.2-26.3-15.6c-13.2-16.4-13.9-41.9-1.6-59c6.9-9.5,16.5-14.6,28.1-15.9
		c2-0.2,2.1-0.1,1.9,2.3c-5,0.8-9.8,2.4-14.1,5.3c-9.3,6.2-14.4,15.3-16.4,26.1c-2.8,15.2-0.4,29.4,9.1,41.9
		c4.5,5.9,10.3,10,17.6,11.8C83.4,381.2,83.6,382.2,83.5,383.9z"/>
	<path class="st8" d="M258.8,139.1c0-1.4-0.1-2.9,0.1-4.4c0.1-0.5,0.9-1.1,1.5-1.3c13.2-3.3,26.2-7,39.5-9.9
		c20.5-4.5,41.4-6.9,62.4-7.8c1.9-0.1,3.8,0,5.7,0c0,0.3,0.1,0.7,0.1,1c-1,0.2-2.1,0.6-3.1,0.7c-16.1,2.3-32.2,4.2-48.2,7
		c-18.7,3.3-36.9,8.5-54.9,14.1c-0.8,0.2-1.6,0.5-2.4,0.7C259.4,139.4,259.2,139.3,258.8,139.1z"/>
	<path class="st8" d="M114.5,262.8c-1.2-0.5-2.4-0.8-3.5-1.4c-9.3-5.5-14.5-13.9-16.1-24.4c-1.8-11.1,0.7-21.2,8.6-29.5
		c5.8-6.1,13.1-8.7,21.8-9.2c0,2.3,0,4.4,0,6.6c0,1.4-1.2,1.2-2.1,1.3c-7.4,0.6-13.6,3.6-18.2,9.5c-7.2,9.3-7.9,22.5-1.6,33.1
		c2.5,4.3,5.9,7.8,9.9,10.9c0.8,0.6,1.3,1.5,1.9,2.2C115,262.2,114.8,262.5,114.5,262.8z"/>
	<path class="st8" d="M189,160.9c3.2-2.9,47.8-21.3,52.1-21.4c0,2.1,0,4.3,0,6.6c-5.4,2-11,3.9-16.5,6.2c-7.8,3.2-15.5,6.6-23.2,9.9
		c-1,0.4-2.2,0.5-3.3,0.3C195.1,162.1,192.1,161.5,189,160.9z"/>
	<path class="st8" d="M380.4,134c-0.3-0.7-0.5-1-0.5-1.3c0-4-2.1-6.9-4.9-9.5c-3.4-3.3-4-6.7-2.1-10c2.1-3.6,6.4-3.9,8.4-0.2
		c1,1.8,1.7,3.9,1.9,6c0.5,4.8-0.6,9.4-2,13.9C381.1,133.1,380.8,133.3,380.4,134z"/>
</g>
</svg>
